<svg xmlns="http://www.w3.org/2000/svg" width="760" height="270" viewBox="0 0 760 270" role="img" aria-label="CubePilot downloads over time. Latest total 22.">
<style>text{font-family:system-ui,-apple-system,Segoe UI,sans-serif}</style>
<line x1="46" y1="244.0" x2="746" y2="244.0" stroke="#8b93a7" stroke-opacity="0.18" stroke-width="1"/>
<text x="38" y="248.0" text-anchor="end" font-size="11" fill="#8b93a7" fill-opacity="0.75">0</text>
<line x1="46" y1="192.0" x2="746" y2="192.0" stroke="#8b93a7" stroke-opacity="0.18" stroke-width="1"/>
<text x="38" y="196.0" text-anchor="end" font-size="11" fill="#8b93a7" fill-opacity="0.75">10</text>
<line x1="46" y1="140.0" x2="746" y2="140.0" stroke="#8b93a7" stroke-opacity="0.18" stroke-width="1"/>
<text x="38" y="144.0" text-anchor="end" font-size="11" fill="#8b93a7" fill-opacity="0.75">20</text>
<line x1="46" y1="88.0" x2="746" y2="88.0" stroke="#8b93a7" stroke-opacity="0.18" stroke-width="1"/>
<text x="38" y="92.0" text-anchor="end" font-size="11" fill="#8b93a7" fill-opacity="0.75">30</text>
<line x1="46" y1="36.0" x2="746" y2="36.0" stroke="#8b93a7" stroke-opacity="0.18" stroke-width="1"/>
<text x="38" y="40.0" text-anchor="end" font-size="11" fill="#8b93a7" fill-opacity="0.75">40</text>
<polyline points="46.0,207.6 133.5,202.4 221.0,192.0 308.5,192.0 396.0,192.0 483.5,192.0 571.0,192.0 658.5,186.8 746.0,181.6" fill="none" stroke="#22D3EE" stroke-width="1.8" stroke-linejoin="round" stroke-linecap="round"/>
<polyline points="46.0,218.0 133.5,218.0 221.0,197.2 308.5,192.0 396.0,192.0 483.5,192.0 571.0,192.0 658.5,192.0 746.0,192.0" fill="none" stroke="#7F50EE" stroke-width="1.8" stroke-linejoin="round" stroke-linecap="round"/>
<polyline points="46.0,181.6 133.5,176.4 221.0,145.2 308.5,140.0 396.0,140.0 483.5,140.0 571.0,140.0 658.5,134.8 746.0,129.6" fill="none" stroke="#3767E9" stroke-width="2.6" stroke-linejoin="round" stroke-linecap="round"/>
<circle cx="746.0" cy="129.6" r="3.5" fill="#3767E9"/>
<text x="46" y="262" font-size="11" fill="#8b93a7" fill-opacity="0.75">2026-09-20</text>
<text x="746" y="262" text-anchor="end" font-size="11" fill="#8b93a7" fill-opacity="0.75">2026-09-28</text>
<rect x="46" y="14" width="10" height="3" rx="1.5" fill="#3767E9"/>
<text x="61" y="20" font-size="11" fill="#8b93a7">Total 22</text>
<rect x="124.8" y="14" width="10" height="3" rx="1.5" fill="#22D3EE"/>
<text x="139.8" y="20" font-size="11" fill="#8b93a7">Android 12</text>
<rect x="216.8" y="14" width="10" height="3" rx="1.5" fill="#7F50EE"/>
<text x="231.8" y="20" font-size="11" fill="#8b93a7">Windows 10</text>
</svg>
