<svg xmlns="http://www.w3.org/2000/svg" width="760" height="270" viewBox="0 0 760 270" role="img" aria-label="CubePilot downloads over time. Latest total 25.">
<style>text{font-family:system-ui,-apple-system,Segoe UI,sans-serif}</style>
<line x1="46" y1="244.0" x2="746" y2="244.0" stroke="#8b93a7" stroke-opacity="0.18" stroke-width="1"/>
<text x="38" y="248.0" text-anchor="end" font-size="11" fill="#8b93a7" fill-opacity="0.75">0</text>
<line x1="46" y1="192.0" x2="746" y2="192.0" stroke="#8b93a7" stroke-opacity="0.18" stroke-width="1"/>
<text x="38" y="196.0" text-anchor="end" font-size="11" fill="#8b93a7" fill-opacity="0.75">10</text>
<line x1="46" y1="140.0" x2="746" y2="140.0" stroke="#8b93a7" stroke-opacity="0.18" stroke-width="1"/>
<text x="38" y="144.0" text-anchor="end" font-size="11" fill="#8b93a7" fill-opacity="0.75">20</text>
<line x1="46" y1="88.0" x2="746" y2="88.0" stroke="#8b93a7" stroke-opacity="0.18" stroke-width="1"/>
<text x="38" y="92.0" text-anchor="end" font-size="11" fill="#8b93a7" fill-opacity="0.75">30</text>
<line x1="46" y1="36.0" x2="746" y2="36.0" stroke="#8b93a7" stroke-opacity="0.18" stroke-width="1"/>
<text x="38" y="40.0" text-anchor="end" font-size="11" fill="#8b93a7" fill-opacity="0.75">40</text>
<polyline points="46.0,207.6 92.7,202.4 139.3,192.0 186.0,192.0 232.7,192.0 279.3,192.0 326.0,192.0 372.7,186.8 419.3,181.6 466.0,166.0 512.7,166.0 559.3,166.0 606.0,166.0 652.7,166.0 699.3,166.0 746.0,166.0" fill="none" stroke="#22D3EE" stroke-width="1.8" stroke-linejoin="round" stroke-linecap="round"/>
<polyline points="46.0,218.0 92.7,218.0 139.3,197.2 186.0,192.0 232.7,192.0 279.3,192.0 326.0,192.0 372.7,192.0 419.3,192.0 466.0,192.0 512.7,192.0 559.3,192.0 606.0,192.0 652.7,192.0 699.3,192.0 746.0,192.0" fill="none" stroke="#7F50EE" stroke-width="1.8" stroke-linejoin="round" stroke-linecap="round"/>
<polyline points="46.0,181.6 92.7,176.4 139.3,145.2 186.0,140.0 232.7,140.0 279.3,140.0 326.0,140.0 372.7,134.8 419.3,129.6 466.0,114.0 512.7,114.0 559.3,114.0 606.0,114.0 652.7,114.0 699.3,114.0 746.0,114.0" fill="none" stroke="#3767E9" stroke-width="2.6" stroke-linejoin="round" stroke-linecap="round"/>
<circle cx="746.0" cy="114.0" r="3.5" fill="#3767E9"/>
<text x="46" y="262" font-size="11" fill="#8b93a7" fill-opacity="0.75">2026-09-20</text>
<text x="746" y="262" text-anchor="end" font-size="11" fill="#8b93a7" fill-opacity="0.75">2026-10-05</text>
<rect x="46" y="14" width="10" height="3" rx="1.5" fill="#3767E9"/>
<text x="61" y="20" font-size="11" fill="#8b93a7">Total 25</text>
<rect x="124.8" y="14" width="10" height="3" rx="1.5" fill="#22D3EE"/>
<text x="139.8" y="20" font-size="11" fill="#8b93a7">Android 15</text>
<rect x="216.8" y="14" width="10" height="3" rx="1.5" fill="#7F50EE"/>
<text x="231.8" y="20" font-size="11" fill="#8b93a7">Windows 10</text>
</svg>
