<svg xmlns="http://www.w3.org/2000/svg" width="1280" height="500" viewBox="0 0 1280 500" role="img" aria-label="CubePilot — Your servers. One workspace.">
<defs><linearGradient id="bg" x2="1" y2="1"><stop stop-color="#091225"/><stop offset="1" stop-color="#211440"/></linearGradient><linearGradient id="accent"><stop stop-color="#22d3ee"/><stop offset="1" stop-color="#a78bfa"/></linearGradient><pattern id="grid" width="40" height="40" patternUnits="userSpaceOnUse"><path d="M40 0H0V40" fill="none" stroke="#6275b9" stroke-opacity=".09"/></pattern></defs>
<rect width="1280" height="500" rx="24" fill="url(#bg)"/><rect width="1280" height="500" rx="24" fill="url(#grid)"/>
<g transform="translate(65 64) scale(.66)"><path d="M60 10 103 35 60 60 17 35Z" fill="#22d3ee"/><path d="M17 35 60 60 60 110 17 85Z" fill="#3b6ef6"/><path d="M103 35 103 85 60 110 60 60Z" fill="#a78bfa"/></g>
<g font-family="Segoe UI,Arial,sans-serif"><text x="160" y="114" fill="#f5f7ff" font-size="38" font-weight="700">CubePilot</text><text x="76" y="209" fill="#f5f7ff" font-size="54" font-weight="700">Your servers.</text><text x="76" y="274" fill="url(#accent)" font-size="54" font-weight="700">One workspace.</text><text x="78" y="324" fill="#bbc7e6" font-size="20">Connect. Transfer. Monitor. Remember.</text>
<rect x="78" y="369" width="254" height="42" rx="21" fill="#263458"/><text x="100" y="396" fill="#dce6ff" font-size="16">ANDROID + WINDOWS</text><text x="350" y="396" fill="#94a7cc" font-size="16">Free to use · No account</text>
<rect x="720" y="83" width="485" height="331" rx="16" fill="#0c1528" stroke="#455781"/><path d="M720 129H1205" stroke="#455781"/><circle cx="746" cy="106" r="5" fill="#ff7285"/><circle cx="766" cy="106" r="5" fill="#ffc66d"/><circle cx="786" cy="106" r="5" fill="#53dec1"/><text x="812" y="112" fill="#9dafd1" font-size="14">THE SERVER WORKSPACE</text>
<g font-family="Consolas,monospace" font-size="17"><text x="750" y="168" fill="#53dec1">$ ssh your-server</text><text x="750" y="200" fill="#a7b8d8">Connection established.</text><text x="750" y="239" fill="#22d3ee">SSH / SFTP / TUNNELS</text><text x="750" y="271" fill="#a78bfa">DOCKER / KUBERNETES</text><text x="750" y="303" fill="#dce6ff">METRICS / LOGS / TIMELINE</text></g><rect x="750" y="337" width="425" height="48" rx="8" fill="#15283a"/><circle cx="772" cy="361" r="5" fill="#53dec1"/><text x="789" y="367" fill="#a5d9d5" font-size="15">Your infrastructure, within reach.</text></g></svg>